{"title":"Sarpanch Bhagirath 2016 Marathi DesiPDVD x264 AAC [TMB]","uid":15552185,"size":772111538,"categoryP":"video","categoryS":"movies","magnet":"?xt=urn:btih:34fa7ac05def076339272287113ca878998f4840&amp;dn=Sarpanch+Bhagirath+2016+Marathi+DesiPDVD+x264+AAC+%5BTMB%5D&amp;tr=udp%3A%2F%2Ftracker.leechers-paradise.org%3A6969&amp;tr=udp%3A%2F%2Fzer0day.ch%3A1337&amp;tr=udp%3A%2F%2Fopen.demonii.com%3A1337&amp;tr=udp%3A%2F%2Ftracker.coppersurfer.tk%3A6969&amp;tr=udp%3A%2F%2Fexodus.desync.com%3A6969","seeders":1,"leechers":1,"uploader":"Manoj_vb","files":2,"time":1471035850,"description":"http://i1306.photobucket.com/albums/s570/zyx55e/44_zpsc46e809d.gif\r\n \nhttp://s25.postimg.org/r62hvosfz/Sarpanch_Bhagirath_Marathi_Movie_Poster.jpg\r\n \nhttp://s25.postimg.org/yczldtdz3/vlcsnap_0215_01_29_12h49m10s321.png\r\n \nhttp://s25.postimg.org/h7hj97j0f/vlcsnap_0286_11_03_15h40m44s016.png\r\n \nhttp://s25.postimg.org/lkbhdw2db/vlcsnap_1771_08_15_17h22m07s394.png\r\n \nhttp://s25.postimg.org/c2gbrl62n/vlcsnap_1816_02_06_04h45m22s101.png\r\n \nhttp://s25.postimg.org/srhrni2nz/vlcsnap_2161_05_27_06h44m24s235.png\r\n \nhttp://s25.postimg.org/dlbpwkcn3/vlcsnap_2481_10_31_04h17m51s061.png\r\n \nhttp://s25.postimg.org/6abm6p6v3/vlcsnap_2576_01_06_10h07m10s304.png\r\n \nhttp://s25.postimg.org/vmuuud6nz/vlcsnap_4213_08_07_06h26m35s876.png\r\n \nhttp://s25.postimg.org/5h3lrtq7z/vlcsnap_9582_06_08_00h12m01s866.png\r\n \nhttp://i1306.photobucket.com/albums/s570/zyx55e/oie_11162011MOJeDGQI_zpsc25b2b81.gif\r\n\r\nGeneral\r\nComplete name               : Sarpanch Bhagirath 2016 DesiPDVD x264 AAC [TMB].mp4\r\nFormat                      : MPEG-4\r\nFormat profile              : Base Media / Version 2\r\nCodec ID                    : mp42 (mp42/isom)\r\nFile size                   : 730 MiB\r\nOverall bit rate mode       : Variable\r\nOverall bit rate            : 1 089 Kbps\r\n\r\nVideo\r\nFormat                      : AVC\r\nFormat/Info                 : Advanced Video Codec\r\nFormat profile              :   \r\nFormat settings, CABAC      : Yes\r\nFormat settings, ReFrames   : 4 frames\r\nCodec ID                    : avc1\r\nCodec ID/Info               : Advanced Video Coding\r\nBit rate                    : 955 Kbps\r\nWidth                       : 704 pixels\r\nHeight                      : 322 pixels\r\nDisplay aspect ratio        : 2.2:1\r\nFrame rate mode             : Variable\r\nFrame rate                  : 25.000 fps\r\nMinimum frame rate          : 4.327 fps\r\nMaximum frame rate          : 25.000 fps\r\nColor space                 : YUV\r\nChroma subsampling          : 4:2:0\r\nBit depth                   : 8 bits\r\nScan type                   : Progressive\r\nBits/(Pixel*Frame)          : 0.169\r\nStream size                 : 640 MiB (88%)\r\nWriting library             : x264 core 146 r2538 121396c\r\n\r\nAudio\r\nFormat                      : AAC\r\nFormat/Info                 : Advanced Audio Codec\r\nFormat profile              : LC\r\nCodec ID                    : 40\r\nBit rate mode               : Variable\r\nBit rate                    : 128 Kbps\r\nChannel(s)                  : 2 channels\r\nChannel positions           : Front: L R\r\nSampling rate               : 48.0 KHz\r\nFrame rate                  : 46.875 fps (1024 spf)\r\nCompression mode            : Lossy\r\nStream size                 : 85.9 MiB (12%)\r\n\r\nSample in Torrent..\r\n\r\nSource : SaketSaket\r\n\r\nRipper: Manojvb\r\n\r\nSeeding 24x7... Extreme Seeding...\r\n\r\n\r\nEnjoy!","torrent":{"xt":"urn:btih:34fa7ac05def076339272287113ca878998f4840","amp;dn":"Sarpanch+Bhagirath+2016+Marathi+DesiPDVD+x264+AAC+%5BTMB%5D","amp;tr":["udp%3A%2F%2Ftracker.leechers-paradise.org%3A6969","udp%3A%2F%2Fzer0day.ch%3A1337","udp%3A%2F%2Fopen.demonii.com%3A1337","udp%3A%2F%2Ftracker.coppersurfer.tk%3A6969","udp%3A%2F%2Fexodus.desync.com%3A6969"],"infoHash":"34fa7ac05def076339272287113ca878998f4840","infoHashBuffer":{"type":"Buffer","data":[52,250,122,192,93,239,7,99,57,39,34,135,17,60,168,120,153,143,72,64]},"announce":[],"urlList":[]}}